<svg width="350" height="150" xmlns="http://www.w3.org/2000/svg" class="iconLeft">
 <!---->

 <!---->
 <!---->
 <!---->
 <!---->
 <g>
  <title>background</title>
  <rect fill="none" id="canvas_background" height="152" width="352" y="-1" x="-1"/>
 </g>
 <g>
  <title>Layer 1</title>
  <g transform="matrix(4.454343211473998,0,0,4.454343211473998,335.47265965778627,247.55460335465045) " fill="white" id="1ade7f90-e347-4c38-87eb-2aebd220486a">
   <path id="svg_1" d="m-46.318607,-34.006497l-1.22,0l-2.02,-5.67l0,5.67l-1.06,0l0,-11.52l1.06,0l0,4.97l1.95,-4.97l1.15,0l-2.19,5.25l2.33,6.27zm3.82,0l-0.97,0l0,-7.15l0,0q0,-0.38 -0.12,-0.54l0,0l0,0q-0.13,-0.16 -0.44,-0.16l0,0l0,0q-0.21,0 -0.42,0.13l0,0l0,0q-0.21,0.12 -0.32,0.4l0,0l0,7.32l-0.97,0l0,-8.66l0.82,0l0,0q0.04,0.32 0.04,0.66l0,0l0,0q0.19,-0.37 0.52,-0.58l0,0l0,0q0.32,-0.22 0.72,-0.22l0,0l0,0q0.59,0 0.87,0.38l0,0l0,0q0.27,0.37 0.27,1.21l0,0l0,7.21zm1.99,-9.77l-0.97,0l0,-1.75l0.97,0l0,1.75zm0,9.77l-0.97,0l0,-8.66l0.97,0l0,8.66zm3.2,-1.62l0,-1.92l0.9,0l0,1.93l0,0q0,0.8 -0.37,1.27l0,0l0,0q-0.37,0.47 -1.17,0.47l0,0l0,0q-0.8,0 -1.19,-0.48l0,0l0,0q-0.39,-0.49 -0.39,-1.28l0,0l0,-5.38l0,0q0,-0.8 0.39,-1.3l0,0l0,0q0.39,-0.49 1.19,-0.49l0,0l0,0q0.8,0 1.15,0.49l0,0l0,0q0.36,0.49 0.36,1.29l0,0l0,1.87l-0.87,0l0,-1.89l0,0q0,-0.77 -0.64,-0.77l0,0l0,0q-0.32,0 -0.48,0.21l0,0l0,0q-0.17,0.21 -0.17,0.58l0,0l0,5.39l0,0q0,0.78 0.65,0.78l0,0l0,0q0.64,0 0.64,-0.77l0,0zm5.39,1.62l-1.06,0l-1.57,-4.45l0,4.45l-0.94,0l0,-11.52l0.94,0l0,6.6l1.57,-3.74l1.02,0l-1.69,3.83l1.73,4.83zm4.2,0l-1.06,0l-1.57,-4.45l0,4.45l-0.94,0l0,-11.52l0.94,0l0,6.6l1.57,-3.74l1.02,0l-1.69,3.83l1.73,4.83zm3.87,0l-0.97,0l0,-7.15l0,0q0,-0.38 -0.13,-0.54l0,0l0,0q-0.12,-0.16 -0.43,-0.16l0,0l0,0q-0.21,0 -0.42,0.13l0,0l0,0q-0.21,0.12 -0.32,0.4l0,0l0,7.32l-0.97,0l0,-8.66l0.81,0l0,0q0.05,0.32 0.05,0.66l0,0l0,0q0.19,-0.37 0.51,-0.58l0,0l0,0q0.33,-0.22 0.73,-0.22l0,0l0,0q0.59,0 0.86,0.38l0,0l0,0q0.28,0.37 0.28,1.21l0,0l0,7.21zm4.01,0l-0.88,0l0,0q-0.05,-0.18 -0.05,-0.51l0,0l0,0q-0.35,0.64 -1.04,0.64l0,0l0,0q-0.59,0 -0.92,-0.32l0,0l0,0q-0.33,-0.32 -0.33,-1.05l0,0l0,-1.28l0,0q0,-0.63 0.18,-1.05l0,0l0,0q0.17,-0.43 0.47,-0.72l0,0l0,0q0.31,-0.3 0.71,-0.5l0,0l0,0q0.41,-0.2 0.87,-0.4l0,0l0,-1.89l0,0q0,-0.36 -0.13,-0.56l0,0l0,0q-0.14,-0.2 -0.5,-0.2l0,0l0,0q-0.38,0 -0.5,0.2l0,0l0,0q-0.13,0.2 -0.13,0.56l0,0l0,1.82l-0.85,0l0,-1.83l0,0q0,-0.86 0.35,-1.28l0,0l0,0q0.36,-0.43 1.16,-0.43l0,0l0,0q1.52,0 1.52,1.71l0,0l0,6.1l0,0q0,0.31 0.02,0.57l0,0l0,0q0.01,0.27 0.05,0.42l0,0zm-0.99,-1.35l0,-3.07l0,0q-0.42,0.15 -0.68,0.34l0,0l0,0q-0.26,0.18 -0.39,0.41l0,0l0,0q-0.13,0.23 -0.18,0.53l0,0l0,0q-0.04,0.3 -0.04,0.69l0,0l0,0.93l0,0q0,0.71 0.66,0.71l0,0l0,0q0.21,0 0.39,-0.12l0,0l0,0q0.17,-0.13 0.24,-0.42l0,0zm4.02,-0.27l0,-1.92l0.89,0l0,1.93l0,0q0,0.8 -0.37,1.27l0,0l0,0q-0.37,0.47 -1.17,0.47l0,0l0,0q-0.79,0 -1.19,-0.48l0,0l0,0q-0.39,-0.49 -0.39,-1.28l0,0l0,-5.38l0,0q0,-0.8 0.39,-1.3l0,0l0,0q0.4,-0.49 1.19,-0.49l0,0l0,0q0.8,0 1.16,0.49l0,0l0,0q0.36,0.49 0.36,1.29l0,0l0,1.87l-0.87,0l0,-1.89l0,0q0,-0.77 -0.65,-0.77l0,0l0,0q-0.32,0 -0.48,0.21l0,0l0,0q-0.16,0.21 -0.16,0.58l0,0l0,5.39l0,0q0,0.78 0.64,0.78l0,0l0,0q0.65,0 0.65,-0.77l0,0zm5.39,1.62l-1.07,0l-1.56,-4.45l0,4.45l-0.94,0l0,-11.52l0.94,0l0,6.6l1.56,-3.74l1.03,0l-1.7,3.83l1.74,4.83zm2.55,-1.51l0,-0.99l0,0q0,-0.28 -0.08,-0.48l0,0l0,0q-0.08,-0.21 -0.34,-0.53l0,0l0,0q-0.3,-0.35 -0.66,-0.66l0,0l0,0q-0.37,-0.32 -0.63,-0.64l0,0l0,0q-0.28,-0.31 -0.37,-0.62l0,0l0,0q-0.08,-0.31 -0.08,-0.81l0,0l0,-0.9l0,0q0,-0.89 0.39,-1.28l0,0l0,0q0.39,-0.38 1.15,-0.38l0,0l0,0q0.88,0 1.21,0.39l0,0l0,0q0.33,0.39 0.33,1.27l0,0l0,1.42l-0.88,0l0,-1.42l0,0q0,-0.32 -0.18,-0.51l0,0l0,0q-0.19,-0.19 -0.45,-0.19l0,0l0,0q-0.63,0 -0.63,0.7l0,0l0,1.03l0,0q0,0.3 0.08,0.48l0,0l0,0q0.07,0.17 0.31,0.43l0,0l0,0q0.28,0.3 0.63,0.58l0,0l0,0q0.35,0.28 0.62,0.59l0,0l0,0q0.32,0.38 0.43,0.74l0,0l0,0q0.11,0.35 0.11,0.91l0,0l0,0.94l0,0q0,0.84 -0.4,1.21l0,0l0,0q-0.4,0.36 -1.21,0.36l0,0l0,0q-1.51,0 -1.51,-1.61l0,0l0,-1.41l0.87,0l0,1.38l0,0q0,0.32 0.19,0.51l0,0l0,0q0.19,0.19 0.47,0.19l0,0l0,0q0.63,0 0.63,-0.7l0,0zm2.78,1.51l-0.99,0l0,-1.75l0.99,0l0,1.75zm3.28,-1.54l0,-5.46l0,0q0,-0.4 -0.15,-0.56l0,0l0,0q-0.15,-0.16 -0.47,-0.16l0,0l0,0q-0.24,0 -0.44,0.14l0,0l0,0q-0.2,0.14 -0.3,0.42l0,0l0,5.76l0,0q0.1,0.28 0.3,0.42l0,0l0,0q0.2,0.14 0.44,0.14l0,0l0,0q0.32,0 0.47,-0.16l0,0l0,0q0.15,-0.16 0.15,-0.54l0,0zm-1.36,3.49l-0.97,0l0,-10.61l0.82,0l0,0q0.04,0.32 0.04,0.66l0,0l0,0q0.15,-0.37 0.43,-0.56l0,0l0,0q0.28,-0.19 0.76,-0.19l0,0l0,0q0.6,0 0.92,0.4l0,0l0,0q0.31,0.39 0.31,1.23l0,0l0,5.67l0,0q0,0.88 -0.29,1.23l0,0l0,0q-0.3,0.35 -0.97,0.35l0,0l0,0q-0.35,0 -0.62,-0.15l0,0l0,0q-0.28,-0.14 -0.43,-0.38l0,0l0,2.35zm4.24,-1.95l-0.96,0l0,-11.52l0.96,0l0,11.52z"/>
  </g>
  <g fill="white" transform="matrix(0.6273594627950742,0,0,0.6273594627950742,-2605.6852714194883,774.4442591276697) " id="bae946e5-f474-4d54-ac0c-af1370c2a397">
   <path id="svg_2" d="m4255.456198,-1073.656058l22.463,0l0,-18.129l-5.686,0l0,-100.367l-33.198,0l0,-11.964l-11.783,0l0,-28.853l-18.167,0l0,28.853l-12.772,0l0,11.964l-30.448,0l0,-0.004l-1.112,0l0,100.372l-7.323,0l0,18.129l23.119,0l-24.948,69.853l19.84,0l13.84,-38.75l19.113,0l0,27.417l18.562,0l0,-27.417l19.77,0l13.84,38.75l19.84,0l-24.95,-69.854zm6.129,-112.997l5.148,0l0,94.786l-5.148,0l0,-94.786zm0,100.367l10.834,0l0,7.129l-10.834,0l0,-7.129zm-47,-141.184l7.167,0l0,23.167l-7.167,0l0,-23.167zm-12.772,28.853l31.723,0l0,9.788l-31.723,0l0,-9.788zm-31.561,11.964l26.061,0l0,3.324l42.723,0l0,-3.324l17.05,0l0,22.691c-3.093,0.481 -11.141,1.612 -16.343,1.241c-6.412,-0.466 -11.688,5.521 -13.965,8.613l-31.115,0c-10.263,-11.658 -19.885,-15.215 -24.41,-16.283l0,-16.262l-0.001,0zm45.605,68.61c3.994,3.063 7.682,6.073 8.288,6.916c1.368,2.192 4.504,5.113 4.857,5.438l1.944,1.794l7.266,11.591l-29.637,0c4.877,-5.951 9.426,-12.187 9.426,-14.75c0.001,-2.139 -1.21,-7.316 -2.144,-10.989zm18.792,10.641a41.844,41.844 0 0 1 3.058,-7.062c1.306,-2.056 2.598,-3.948 3.662,-5.265a16.3,16.3 0 0 1 2.195,-2.044c0.866,-0.542 2.07,-1.15 3.466,-1.781c0.026,-0.007 0.051,-0.02 0.077,-0.027c3.772,-1.012 6.46,-1.911 8.374,-2.681l-0.41,32.73l-11.449,0.444l-8.973,-14.314zm10.627,-20.841c-1.716,0.537 -3.274,1.387 -4.687,2.45c-0.446,0.29 -0.851,0.577 -1.175,0.854c-0.474,0.405 -0.994,0.958 -1.542,1.605c-1.819,1.952 -3.314,4.2 -4.512,6.376a154.927,154.927 0 0 0 -3.222,5.338c-0.7,-0.755 -1.372,-1.545 -1.755,-2.158c-1.161,-1.856 -7.579,-6.827 -11.561,-9.812l12.137,-26.335c1.517,-2.391 6.126,-8.113 10.426,-7.81c4.989,0.358 12,-0.487 15.912,-1.052l0.221,26.566c-2.37,0.816 -6.584,2.332 -10.242,3.978zm-33.055,2.702c-0.607,-1.737 -2.829,-7.648 -6.747,-13.128a104.873,104.873 0 0 0 -3.069,-5.099c1.209,-1.308 3.83,-3.369 8.346,-3.369c4.365,0 7.697,2.461 9.504,4.19l-8.034,17.406zm-41.969,-39.668c1.935,0.568 4.683,1.616 7.915,3.546c3.818,2.279 8.827,6.131 14.113,12.491l0,0.064l0.053,0c2.917,3.519 5.917,7.79 8.85,13.008l0.15,0.236c4.135,5.742 6.278,12.293 6.299,12.358l0.134,0.414l2.426,3.153c0.886,3.276 2.092,8.133 2.585,10.997c-3.53,-3.319 -9.022,-9.002 -12.062,-14.777c-4.925,-9.359 -23.661,-7.282 -30.462,-6.186l0,-35.304l-0.001,0zm0,40.384c2.109,-0.351 6.607,-0.997 11.397,-1.041c7.855,-0.068 13.084,1.519 14.641,4.477c3.944,7.494 11.257,14.529 14.724,17.625c-2.12,3.076 -5.596,7.493 -8.953,11.46l-31.809,0l0,-32.521zm-7.323,45.669l0,-7.129l93.156,0l0,7.129l-2.593,0l-0.053,-0.147l-19.84,0l0.053,0.147l-31.301,0l0.053,-0.147l-19.84,0l-0.053,0.147l-19.582,0zm78.082,20.603l-14.056,0l0,-15.103l8.661,0l5.395,15.103zm-19.556,-14.584l0,14.583l-7.562,0l0,-14.583l7.562,0zm-13.062,-0.519l0,15.103l-13.399,0l5.395,-15.103l8.004,0zm13.062,53.019l-7.562,0l0,-21.917l7.562,0l0,21.917zm29.194,-26.905l-6.021,0l0.1,-0.011l-53.595,0l0.082,0.011l-5.861,0l-13.79,38.239l-8.16,0l22.982,-64.353l8.16,0l-5.394,15.103l-1.762,4.932l5.67,0l0.146,0.068l49.59,0l0.021,-0.193l5.84,0l-1.55,-4.089l-0.196,-0.718l-0.061,0l-5.394,-15.103l8.16,0l7.632,21.369c0.209,0.341 0.345,0.725 0.401,1.126l14.949,41.858l-8.16,0l-13.789,-38.239z"/>
   <path id="svg_3" d="m4187.375198,-1053.574058l0.017,-0.047l-0.17,0l0.153,0.047zm34.127,-108.979c4.963,0 9,-4.038 9,-9s-4.037,-9 -9,-9s-9,4.038 -9,9s4.037,9 9,9zm0,-13c2.206,0 4,1.794 4,4s-1.794,4 -4,4s-4,-1.794 -4,-4s1.794,-4 4,-4z"/>
  </g>
 </g>
</svg>