<svg data-v-fde0c5aa="" xmlns="http://www.w3.org/2000/svg" viewBox="0 0 300 300" class="icon"><!----><defs data-v-fde0c5aa=""><!----></defs><rect data-v-fde0c5aa="" fill="transparent" x="0" y="0" width="300px" height="300px" class="logo-background-square"></rect><!----><defs data-v-fde0c5aa=""><linearGradient data-v-fde0c5aa="" gradientTransform="rotate(25)" id="503b1782-c9c8-49cd-ac05-c3de777952bb" x1="0%" y1="0%" x2="100%" y2="0%"><stop data-v-fde0c5aa="" offset="0%" stop-color="#410FF8" stop-opacity="1"></stop><stop data-v-fde0c5aa="" offset="100%" stop-color="#410FF8" stop-opacity="1"></stop></linearGradient></defs><g data-v-fde0c5aa="" id="3e4c658c-6709-421b-aff3-129e4300023c" fill="url(#503b1782-c9c8-49cd-ac05-c3de777952bb)" stroke="none" transform="matrix(0.9599986363655734,0,0,0.9599986363655734,-3899.6757319946987,551.5045468685414)"><path d="M4255.872-373.505h22.463v-18.129h-5.686v-100.367h-33.198v-11.964h-11.783v-28.853h-18.167v28.853h-12.772v11.964h-30.448v-.004h-1.112v100.372h-7.323v18.129h23.119l-24.948 69.853h19.84l13.84-38.75h19.113v27.417h18.562v-27.417h19.77l13.84 38.75h19.84l-24.95-69.854zm6.129-112.997h5.148v94.786h-5.148v-94.786zm0 100.367h10.834v7.129h-10.834v-7.129zm-47-141.184h7.167v23.167h-7.167v-23.167zm-12.772 28.853h31.723v9.788h-31.723v-9.788zm-31.561 11.964h26.061v3.324h42.723v-3.324h17.05v22.691c-3.093.481-11.141 1.612-16.343 1.241-6.412-.466-11.688 5.521-13.965 8.613h-31.115c-10.263-11.658-19.885-15.215-24.41-16.283v-16.262zm45.605 68.61c3.994 3.063 7.682 6.073 8.288 6.916 1.368 2.192 4.504 5.113 4.857 5.438l1.944 1.794 7.266 11.591h-29.637c4.877-5.951 9.426-12.187 9.426-14.75.001-2.139-1.21-7.316-2.144-10.989zm18.792 10.641a41.844 41.844 0 0 1 3.058-7.062c1.306-2.056 2.598-3.948 3.662-5.265a16.3 16.3 0 0 1 2.195-2.044c.866-.542 2.07-1.15 3.466-1.781.026-.007.051-.02.077-.027 3.772-1.012 6.46-1.911 8.374-2.681l-.41 32.73-11.449.444-8.973-14.314zm10.627-20.841c-1.716.537-3.274 1.387-4.687 2.45-.446.29-.851.577-1.175.854-.474.405-.994.958-1.542 1.605-1.819 1.952-3.314 4.2-4.512 6.376a154.927 154.927 0 0 0-3.222 5.338c-.7-.755-1.372-1.545-1.755-2.158-1.161-1.856-7.579-6.827-11.561-9.812l12.137-26.335c1.517-2.391 6.126-8.113 10.426-7.81 4.989.358 12-.487 15.912-1.052l.221 26.566c-2.37.816-6.584 2.332-10.242 3.978zm-33.055 2.702c-.607-1.737-2.829-7.648-6.747-13.128a104.873 104.873 0 0 0-3.069-5.099c1.209-1.308 3.83-3.369 8.346-3.369 4.365 0 7.697 2.461 9.504 4.19l-8.034 17.406zm-41.969-39.668c1.935.568 4.683 1.616 7.915 3.546 3.818 2.279 8.827 6.131 14.113 12.491v.064h.053c2.917 3.519 5.917 7.79 8.85 13.008l.15.236c4.135 5.742 6.278 12.293 6.299 12.358l.134.414 2.426 3.153c.886 3.276 2.092 8.133 2.585 10.997-3.53-3.319-9.022-9.002-12.062-14.777-4.925-9.359-23.661-7.282-30.462-6.186v-35.304zm0 40.384c2.109-.351 6.607-.997 11.397-1.041 7.855-.068 13.084 1.519 14.641 4.477 3.944 7.494 11.257 14.529 14.724 17.625-2.12 3.076-5.596 7.493-8.953 11.46h-31.809v-32.521zm-7.323 45.669v-7.129h93.156v7.129h-2.593l-.053-.147h-19.84l.053.147h-31.301l.053-.147h-19.84l-.053.147h-19.582zm78.082 20.603h-14.056v-15.103h8.661l5.395 15.103zm-19.556-14.584v14.583h-7.562v-14.583h7.562zm-13.062-.519v15.103h-13.399l5.395-15.103h8.004zm13.062 53.019h-7.562v-21.917h7.562v21.917zm29.194-26.905h-6.021l.1-.011h-53.595l.082.011h-5.861l-13.79 38.239h-8.16l22.982-64.353h8.16l-5.394 15.103-1.762 4.932h5.67l.146.068h49.59l.021-.193h5.84l-1.55-4.089-.196-.718h-.061l-5.394-15.103h8.16l7.632 21.369c.209.341.345.725.401 1.126l14.949 41.858h-8.16l-13.789-38.239z"></path><path d="M4187.791-353.423l.017-.047h-.17zM4221.918-462.402c4.963 0 9-4.038 9-9s-4.037-9-9-9-9 4.038-9 9 4.037 9 9 9zm0-13c2.206 0 4 1.794 4 4s-1.794 4-4 4-4-1.794-4-4 1.794-4 4-4z"></path></g><!----></svg>